<svg id="Layer_1" data-name="Layer 1" xmlns="http://www.w3.org/2000/svg" viewBox="0 0 602.63 228.62"><defs><style>.cls-1{fill:#fff;}</style></defs><title>sitnow-logo</title><path class="cls-1" d="M119.69,68.64c27.9,0,34.31,8.09,34.31,29.89v3.74H132.58V91.06H109.72v20.33h23.12c23.26,0,21.17,14,21.17,31.27v6.72c0,20.7-9.16,29-34.31,29-24,0-31.26-7.88-31.26-26.15v-7.48h21.29V156h22.86V132.33H109.4c-16.16,0-21-6.63-21-24.8v-9C88.43,79.34,94.39,68.64,119.69,68.64Z"/><rect class="cls-1" x="170.76" y="50.24" width="23.79" height="22.42"/><rect class="cls-1" x="170.76" y="95.03" width="23.79" height="81.97"/><path class="cls-1" d="M237.7,95v82H213.91V95H194.54V72.65h65.58V95Z"/><path class="cls-1" d="M294,124.76H279V177H255.23V132.16c0-19.93,6.35-29.89,31.26-29.89s31.26,10,31.26,29.89V177H294Z"/><path class="cls-1" d="M425.55,177a9.21,9.21,0,0,1-9.57-9.57V81.34h22.6v76.53h14.69V95.19h22.59v62.68H491.6V81.34h22.6v86.09a9.44,9.44,0,0,1-9.57,9.57Z"/><path class="cls-1" d="M379.2,102.21h-26c-13.5,0-21.39,10.94-21.39,24.44v25.91c0,13.5,7.89,24.44,21.39,24.44h26c13.5,0,21.38-10.94,21.38-24.44V126.65C400.59,113.15,392.7,102.21,379.2,102.21Zm1.49,51.88h-29v-29h29Z"/></svg>